<mxfile host="app.diagrams.net" modified="2020-08-06T10:42:04.461Z" agent="5.0 (Windows)" etag="hduQuj_5dKwB1YGhMu6V" version="13.6.0" type="github">
  <diagram id="T7w5DraAb4aC1jl5Wwyt" name="Page-1">
    <mxGraphModel dx="4888" dy="2700" grid="1" gridSize="10" guides="1" tooltips="1" connect="1" arrows="1" fold="1" page="1" pageScale="1" pageWidth="850" pageHeight="1100" math="0" shadow="0">
      <root>
        <mxCell id="0" />
        <mxCell id="1" parent="0" />
        <mxCell id="q_jwzsCm6GFvE38RONMW-1" value="" style="rounded=0;whiteSpace=wrap;html=1;" vertex="1" parent="1">
          <mxGeometry width="2540" height="2340" as="geometry" />
        </mxCell>
        <mxCell id="q_jwzsCm6GFvE38RONMW-2" value="" style="rounded=0;whiteSpace=wrap;html=1;" vertex="1" parent="1">
          <mxGeometry width="2540" height="210" as="geometry" />
        </mxCell>
        <mxCell id="q_jwzsCm6GFvE38RONMW-3" value="" style="rounded=0;whiteSpace=wrap;html=1;" vertex="1" parent="1">
          <mxGeometry y="190" width="2540" height="1200" as="geometry" />
        </mxCell>
        <mxCell id="q_jwzsCm6GFvE38RONMW-4" value="" style="rounded=0;whiteSpace=wrap;html=1;" vertex="1" parent="1">
          <mxGeometry x="700" y="390" width="1110" height="130" as="geometry" />
        </mxCell>
        <mxCell id="q_jwzsCm6GFvE38RONMW-5" value="" style="rounded=0;whiteSpace=wrap;html=1;" vertex="1" parent="1">
          <mxGeometry x="700" y="600" width="1110" height="140" as="geometry" />
        </mxCell>
        <mxCell id="q_jwzsCm6GFvE38RONMW-6" value="" style="rounded=0;whiteSpace=wrap;html=1;" vertex="1" parent="1">
          <mxGeometry x="700" y="810" width="1120" height="230" as="geometry" />
        </mxCell>
        <mxCell id="q_jwzsCm6GFvE38RONMW-7" value="" style="rounded=1;whiteSpace=wrap;html=1;arcSize=50;" vertex="1" parent="1">
          <mxGeometry x="990" y="1120" width="500" height="170" as="geometry" />
        </mxCell>
        <mxCell id="q_jwzsCm6GFvE38RONMW-8" value="&lt;font style=&quot;font-size: 48px&quot;&gt;Home&lt;/font&gt;" style="text;html=1;strokeColor=none;fillColor=none;align=center;verticalAlign=middle;whiteSpace=wrap;rounded=0;" vertex="1" parent="1">
          <mxGeometry width="610" height="220" as="geometry" />
        </mxCell>
        <mxCell id="q_jwzsCm6GFvE38RONMW-9" value="&lt;font style=&quot;font-size: 48px&quot;&gt;List&lt;/font&gt;" style="text;html=1;strokeColor=none;fillColor=none;align=center;verticalAlign=middle;whiteSpace=wrap;rounded=0;" vertex="1" parent="1">
          <mxGeometry x="600" y="15" width="150" height="180" as="geometry" />
        </mxCell>
        <mxCell id="q_jwzsCm6GFvE38RONMW-10" value="&lt;font style=&quot;font-size: 48px&quot;&gt;Name&lt;/font&gt;" style="text;html=1;strokeColor=none;fillColor=none;align=center;verticalAlign=middle;whiteSpace=wrap;rounded=0;" vertex="1" parent="1">
          <mxGeometry x="770" y="440" width="40" height="20" as="geometry" />
        </mxCell>
        <mxCell id="q_jwzsCm6GFvE38RONMW-11" value="&lt;font style=&quot;font-size: 48px&quot;&gt;email&lt;/font&gt;" style="text;html=1;strokeColor=none;fillColor=none;align=center;verticalAlign=middle;whiteSpace=wrap;rounded=0;" vertex="1" parent="1">
          <mxGeometry x="770" y="660" width="40" height="20" as="geometry" />
        </mxCell>
        <mxCell id="q_jwzsCm6GFvE38RONMW-12" value="&lt;font style=&quot;font-size: 48px&quot;&gt;Description&lt;/font&gt;" style="text;html=1;strokeColor=none;fillColor=none;align=center;verticalAlign=middle;whiteSpace=wrap;rounded=0;" vertex="1" parent="1">
          <mxGeometry x="830" y="870" width="40" height="20" as="geometry" />
        </mxCell>
        <mxCell id="q_jwzsCm6GFvE38RONMW-16" value="&lt;font style=&quot;font-size: 48px&quot;&gt;Submit&lt;/font&gt;" style="text;html=1;strokeColor=none;fillColor=none;align=center;verticalAlign=middle;whiteSpace=wrap;rounded=0;" vertex="1" parent="1">
          <mxGeometry x="1200" y="1195" width="40" height="20" as="geometry" />
        </mxCell>
        <mxCell id="q_jwzsCm6GFvE38RONMW-17" value="&lt;font style=&quot;font-size: 48px&quot;&gt;Details&lt;/font&gt;" style="text;html=1;strokeColor=none;fillColor=none;align=center;verticalAlign=middle;whiteSpace=wrap;rounded=0;" vertex="1" parent="1">
          <mxGeometry x="260" y="1530" width="40" height="20" as="geometry" />
        </mxCell>
        <mxCell id="q_jwzsCm6GFvE38RONMW-18" value="&lt;font style=&quot;font-size: 48px&quot;&gt;Name&lt;/font&gt;&lt;font style=&quot;font-size: 48px&quot;&gt;:&lt;/font&gt;" style="text;html=1;strokeColor=none;fillColor=none;align=center;verticalAlign=middle;whiteSpace=wrap;rounded=0;" vertex="1" parent="1">
          <mxGeometry x="285" y="1640" width="40" height="20" as="geometry" />
        </mxCell>
        <mxCell id="q_jwzsCm6GFvE38RONMW-19" value="&lt;font style=&quot;font-size: 48px&quot;&gt;xxxxxx&lt;/font&gt;" style="text;html=1;strokeColor=none;fillColor=none;align=center;verticalAlign=middle;whiteSpace=wrap;rounded=0;" vertex="1" parent="1">
          <mxGeometry x="460" y="1640" width="40" height="20" as="geometry" />
        </mxCell>
        <mxCell id="q_jwzsCm6GFvE38RONMW-20" value="&lt;font style=&quot;font-size: 48px&quot;&gt;Email:&lt;/font&gt;" style="text;html=1;strokeColor=none;fillColor=none;align=center;verticalAlign=middle;whiteSpace=wrap;rounded=0;" vertex="1" parent="1">
          <mxGeometry x="240" y="1740" width="110" height="20" as="geometry" />
        </mxCell>
        <mxCell id="q_jwzsCm6GFvE38RONMW-22" value="&lt;font style=&quot;font-size: 48px&quot;&gt;xxxxxxxxxxx&lt;/font&gt;" style="text;html=1;strokeColor=none;fillColor=none;align=center;verticalAlign=middle;whiteSpace=wrap;rounded=0;" vertex="1" parent="1">
          <mxGeometry x="520" y="1730" width="40" height="20" as="geometry" />
        </mxCell>
        <mxCell id="q_jwzsCm6GFvE38RONMW-23" value="&lt;font style=&quot;font-size: 48px&quot;&gt;Description&lt;/font&gt;&lt;font style=&quot;font-size: 48px&quot;&gt;:&lt;/font&gt;" style="text;html=1;strokeColor=none;fillColor=none;align=center;verticalAlign=middle;whiteSpace=wrap;rounded=0;" vertex="1" parent="1">
          <mxGeometry x="330" y="1830" width="40" height="20" as="geometry" />
        </mxCell>
        <mxCell id="q_jwzsCm6GFvE38RONMW-24" value="&lt;font style=&quot;font-size: 48px&quot;&gt;xxxxxxxxxxxxxx&lt;/font&gt;" style="text;html=1;strokeColor=none;fillColor=none;align=center;verticalAlign=middle;whiteSpace=wrap;rounded=0;" vertex="1" parent="1">
          <mxGeometry x="660" y="1835" width="40" height="10" as="geometry" />
        </mxCell>
        <mxCell id="q_jwzsCm6GFvE38RONMW-26" value="" style="rounded=1;whiteSpace=wrap;html=1;" vertex="1" parent="1">
          <mxGeometry x="1050" y="1960" width="540" height="130" as="geometry" />
        </mxCell>
        <mxCell id="q_jwzsCm6GFvE38RONMW-27" value="&lt;font style=&quot;font-size: 48px&quot;&gt;Submit&lt;/font&gt;" style="text;html=1;strokeColor=none;fillColor=none;align=center;verticalAlign=middle;whiteSpace=wrap;rounded=0;" vertex="1" parent="1">
          <mxGeometry x="1290" y="2010" width="40" height="20" as="geometry" />
        </mxCell>
        <mxCell id="q_jwzsCm6GFvE38RONMW-28" value="" style="ellipse;whiteSpace=wrap;html=1;aspect=fixed;" vertex="1" parent="1">
          <mxGeometry x="2085" y="60" width="80" height="80" as="geometry" />
        </mxCell>
        <mxCell id="q_jwzsCm6GFvE38RONMW-29" value="&lt;font style=&quot;font-size: 48px&quot;&gt;1&lt;/font&gt;" style="text;html=1;strokeColor=none;fillColor=none;align=center;verticalAlign=middle;whiteSpace=wrap;rounded=0;" vertex="1" parent="1">
          <mxGeometry x="2100" y="100" width="40" height="20" as="geometry" />
        </mxCell>
      </root>
    </mxGraphModel>
  </diagram>
</mxfile>
